<svg xmlns="http://www.w3.org/2000/svg" viewBox="0 0 996 996"><defs><style>.cls-1{fill:#fff;}.cls-2{fill:#2f7ff4;}</style></defs><g id="tc_2" data-name="tc 2"><g id="tc_1-2" data-name="tc 1"><rect class="cls-1" width="996" height="996" rx="50.32"/><path class="cls-2" d="M511,791.32,727.48,467.47c9.25-13,5.55-29.61-7.41-38.87-3.7-3.7-9.25-5.55-14.8-5.55H535V219.48c0-14.8-13-27.75-27.76-27.75-9.25,0-18.5,5.55-22.21,13L268.53,528.53c-9.26,13-5.56,29.61,7.4,38.87,3.7,3.7,9.25,5.55,14.8,5.55H461V776.52c0,14.8,12.95,27.75,27.76,27.75,9.25,0,18.5-5.55,22.2-12.95Z"/></g></g></svg>